inDegrees=no
num_controls=7
num_derivatives=13
num_iterations=134
num_multipliers=7
num_parameters=0
num_slacks=7
num_states=26
objective=0.498163
objective_accelerations=0.003524
objective_balance=0.003079
objective_effort=0.008595
objective_height=0.397748
objective_ligament=0.085216
solver_duration=1841.842523
status=Solve_Succeeded
success=true
DataType=double
version=3
OpenSimVersion=4.5
endheader
time	/jointset/ground_pelvis/pelvis_tilt/value	/jointset/ground_pelvis/pelvis_tx/value	/jointset/ground_pelvis/pelvis_ty/value	/jointset/hip_l/hip_flexion_l/value	/jointset/hip_l/hip_adduction_l/value	/jointset/hip_l/hip_rotation_l/value	/jointset/back/lumbar_extension/value	/jointset/patellofemoral_l/patellar_flexion_l/value	/jointset/knee_l/knee_flexion_l/value	/jointset/knee_l/knee_adduction_l/value	/jointset/knee_l/knee_rotation_l/value	/jointset/ankle_l/ankle_angle_l/value	/jointset/subtalar_l/subtalar_angle_l/value	/jointset/ground_pelvis/pelvis_tilt/speed	/jointset/ground_pelvis/pelvis_tx/speed	/jointset/ground_pelvis/pelvis_ty/speed	/jointset/hip_l/hip_flexion_l/speed	/jointset/hip_l/hip_adduction_l/speed	/jointset/hip_l/hip_rotation_l/speed	/jointset/back/lumbar_extension/speed	/jointset/patellofemoral_l/patellar_flexion_l/speed	/jointset/knee_l/knee_flexion_l/speed	/jointset/knee_l/knee_adduction_l/speed	/jointset/knee_l/knee_rotation_l/speed	/jointset/ankle_l/ankle_angle_l/speed	/jointset/subtalar_l/subtalar_angle_l/speed	/forceset/tau_hip_flexion_l	/forceset/tau_hip_adduction_l	/forceset/tau_hip_rotation_l	/forceset/tau_knee_flexion_l	/forceset/tau_ankle_angle_l	/forceset/tau_subtalar_angle_l	/forceset/tau_lumbar_extension	lambda_cid13_p0	lambda_cid13_p1	lambda_cid13_p2	lambda_cid13_p3	lambda_cid13_p4	lambda_cid13_p5	lambda_cid14_p0	/jointset/ground_pelvis/pelvis_tilt/accel	/jointset/ground_pelvis/pelvis_tx/accel	/jointset/ground_pelvis/pelvis_ty/accel	/jointset/hip_l/hip_flexion_l/accel	/jointset/hip_l/hip_adduction_l/accel	/jointset/hip_l/hip_rotation_l/accel	/jointset/back/lumbar_extension/accel	/jointset/patellofemoral_l/patellar_flexion_l/accel	/jointset/knee_l/knee_flexion_l/accel	/jointset/knee_l/knee_adduction_l/accel	/jointset/knee_l/knee_rotation_l/accel	/jointset/ankle_l/ankle_angle_l/accel	/jointset/subtalar_l/subtalar_angle_l/accel	gamma_cid13_p0	gamma_cid13_p1	gamma_cid13_p2	gamma_cid13_p3	gamma_cid13_p4	gamma_cid13_p5	gamma_cid14_p0
1	0.04912657904851005	0.0786075740839073	0.9385432123285022	0.1601673240976101	-0.2115945250227028	-0.3641705147336035	-0.4988934003647437	0.1670257947313354	0.1670257947313356	-0.02613014489288249	-0.1744375662394122	0.02272975278812923	0.09913661901066094	0.1241245022500743	0.03584480998088334	0.02106827692862147	-0.2656014480601656	0.03478787315006614	-0.05252027240898709	-0.008032165692714331	-0.1530132079888469	-0.1530132079888472	0.01460256645052942	0.0007730285234497523	-0.00289169041990136	0.037067273836513	-0.06497862929610639	0.093000434079203	-0.008347905619161494	-0.06021738749989962	0.04200471978784944	-0.05115877200624497	0.1601694454268363	-36.10304858501159	23.34611353706223	1.755936295506504	8.781034822834142	-705.3194454115293	-19.58070472017496	-21.11152184970814	0.09197789460386893	-0.03378814509879615	-0.0009207811984464794	-0.1109871921592685	-0.01228764472405805	0.005973547562424122	0.4248605076548982	-0.0777503858279453	-0.07775038582794534	-0.07008329525441996	0.006726172649865751	-0.07723940136319633	-0.04574518273022848	1.810906728658905e-10	-1.268656970957116e-09	-7.3806290534761e-10	7.157475284885545e-11	-2.307302836734001e-09	3.410178853326851e-11	6.704061440340439e-11
1.01	0.05037232751525016	0.07896430104579716	0.938753829812689	0.1575059765015015	-0.2112473113227659	-0.3646956077983342	-0.498952493078106	0.1654919168835303	0.1654919168835301	-0.02598766183288446	-0.1744297436375988	0.02269697968305195	0.09950495347585872	0.1250174727087244	0.03549781008973502	0.02105375703232906	-0.2666516046420967	0.03465078765823571	-0.05251943092186547	-0.003787967980650323	-0.1537531007621557	-0.1537531007621586	0.01389026387354829	0.0007663762495151504	-0.003663769694098034	0.03659501373777072	-0.06403204409736317	0.09276033275781068	-0.008339318757523893	-0.06012614475391113	0.04202863042110896	-0.05136952249541483	0.1595937233722484	-36.10980910329236	23.43016291610074	1.752432081860493	8.804734654176411	-705.2485404558818	-19.58387004147744	-21.07212184918042	0.08679896890582496	-0.03557173842368752	-0.001937435692570623	-0.0995598403203287	-0.01503058779812847	-0.006024063441703033	0.4239607528490154	-0.07071960448149217	-0.0707196044814917	-0.07237127180990897	-0.008128322490831031	-0.07731806710685461	-0.04865698317359385	7.101023180347437e-11	-1.208789888944534e-09	-5.929754461809441e-10	9.379906385403406e-11	-2.054487524499329e-09	-3.718250858739511e-11	1.502244341504009e-11
1.02	0.05162677415605881	0.07931747484331537	0.9389642581295433	0.1548346213497515	-0.2109015907950244	-0.3652213251507394	-0.4989691915443743	0.1639509179317124	0.1639509179317117	-0.02585241530523427	-0.1744227410375399	0.02265646060990087	0.09986842722812357	0.125864137063785	0.03513417710655559	0.02103044346211876	-0.2676029591884399	0.03448923871098149	-0.05264512994389314	0.0004466837260880072	-0.1544374287914302	-0.1544374287914305	0.01315525998096403	0.0006090281725522362	-0.004440884034662511	0.03609513124993376	-0.0630854588986199	0.09252023143641835	-0.008330731895886158	-0.06003490200794425	0.04205254105436848	-0.05158027298458762	0.1590180013176426	-36.1174746315845	23.51411586623414	1.749234366509159	8.832253092817377	-705.1894458072882	-19.58921468677855	-21.03229430752389	0.08271667388595252	-0.03711476350501704	-0.00267951598202486	-0.09122678504170451	-0.01718033580881939	-0.01933455426742806	0.4229513065897619	-0.06663743702106446	-0.06663743702106444	-0.07462355837555895	-0.02341298795579646	-0.07824641463772974	-0.05126966054916385	4.059195592313319e-11	-8.047082744345754e-10	-5.693808074257717e-10	1.341617635454836e-10	-1.819793858352871e-09	2.30139800785716e-11	4.385446090584938e-11
1.03	0.05288948354896623	0.07966693113006498	0.9391744138535956	0.1521541933203643	-0.2105576067595216	-0.3657486884327006	-0.4989436214338888	0.1624033252152721	0.1624033252152716	-0.02572465828663495	-0.1744178154629488	0.02260813419794512	0.1002267576550679	0.1266720088700109	0.0347544542038127	0.02099955668084496	-0.2684699202890186	0.03430353027864008	-0.05282315077529005	0.004663535794573004	-0.1550735298312202	-0.1550735298312257	0.01239012775670996	0.0003767815255715752	-0.00522597434683973	0.03556575188846702	-0.06209249799816552	0.09225619215020048	-0.008316649512330593	-0.06000026618760913	0.04214555112470256	-0.05180586091024197	0.1584001099056101	-36.1035609780027	23.60236414215448	1.743490260347291	8.854204760155888	-705.1197772867785	-19.59208755697418	-20.99209322391029	0.07896261037643681	-0.03879492440663179	-0.003465274960921438	-0.08252176644135162	-0.0198716708949699	-0.01637942260196035	0.4204817705080668	-0.06095875252888353	-0.0609587525288746	-0.07836058044307623	-0.02302636475416139	-0.07887673918507089	-0.05455228510379884	1.098655927934426e-11	-3.97114266735866e-10	-5.470258913278601e-10	1.747095488357727e-10	-1.585285106962414e-09	8.455210941583122e-11	7.351148031991597e-11
